<svg version="1.1" xmlns="http://www.w3.org/2000/svg" xmlns:xlink="http://www.w3.org/1999/xlink" width="14.875" height="14.75" viewBox="0,0,14.875,14.75"><g transform="translate(-233,-173)"><g data-paper-data="{&quot;isPaintingLayer&quot;:true}" fill="none" fill-rule="nonzero" stroke-linejoin="miter" stroke-miterlimit="10" stroke-dasharray="" stroke-dashoffset="0" style="mix-blend-mode: normal"><path d="M233.25,184.98911c0,-2.74636 0,-8.06671 0,-9.70455c0,-1.05788 0.9659,-2.03456 1.84635,-2.03456c1.58359,0 6.87274,0 9.75,0c1.1417,0 1.90365,1.06726 1.90365,1.83002c0,1.56174 0,7.06991 0,9.97727c0,1.0249 -0.85107,1.69271 -1.65365,1.69271c-1.55653,0 -7.30455,0 -10.22727,0c-1.11081,0 -1.61908,-0.60028 -1.61908,-1.76089z" stroke="#7b7b7b" stroke-width="0.5" stroke-linecap="butt"/><path d="M235.81194,175.91098h8.33333" stroke="#a6a6a6" stroke-width="1" stroke-linecap="round"/><path d="M235.89527,178.24432h8.33333" stroke="#a6a6a6" stroke-width="1" stroke-linecap="round"/><path d="M235.83333,180.5h8.33333" stroke="#a6a6a6" stroke-width="1" stroke-linecap="round"/><path d="M235.81194,182.82765h8.33334" stroke="#a6a6a6" stroke-width="1" stroke-linecap="round"/><path d="M244.52767,181.29716l-2.98307,3.60514l-1.28841,-1.60554" stroke="#00ff21" stroke-width="1" stroke-linecap="round"/><path d="M242.625,186.84782c0,-1.01717 0,-2.98767 0,-3.59428c0,-0.39181 0.35774,-0.75354 0.68383,-0.75354c0.58652,0 2.54546,0 3.61111,0c0.42285,0 0.70506,0.39528 0.70506,0.67778c0,0.57842 0,2.61848 0,3.69528c0,0.37959 -0.31521,0.62693 -0.61246,0.62693c-0.57649,0 -2.70539,0 -3.78788,0c-0.41141,0 -0.59966,-0.22232 -0.59966,-0.65218z" stroke="#7b7b7b" stroke-width="0.5" stroke-linecap="butt"/><path d="M243.57387,183.48555h3.08642" stroke="#a6a6a6" stroke-width="0.5" stroke-linecap="round"/><path d="M243.60473,184.34975h3.08642" stroke="#a6a6a6" stroke-width="0.5" stroke-linecap="round"/><path d="M243.58179,185.18518h3.08642" stroke="#a6a6a6" stroke-width="0.5" stroke-linecap="round"/><path d="M243.57387,186.04728h3.08642" stroke="#a6a6a6" stroke-width="0.5" stroke-linecap="round"/><path d="M246.80192,185.48043l-1.10484,1.33524l-0.47719,-0.59465" stroke="#00ff21" stroke-width="0.5" stroke-linecap="round"/></g></g></svg>