<svg version="1.1" xmlns="http://www.w3.org/2000/svg" xmlns:xlink="http://www.w3.org/1999/xlink" width="15.40921" height="14" viewBox="0,0,15.40921,14"><g transform="translate(-233,-173)"><g data-paper-data="{&quot;isPaintingLayer&quot;:true}" fill="none" fill-rule="nonzero" stroke-linejoin="miter" stroke-miterlimit="10" stroke-dasharray="" stroke-dashoffset="0" style="mix-blend-mode: normal"><path d="M233.25,184.98911c0,-2.74636 0,-8.06671 0,-9.70455c0,-1.05788 0.9659,-2.03456 1.84635,-2.03456c1.58359,0 6.87274,0 9.75,0c1.1417,0 1.90365,1.06726 1.90365,1.83002c0,1.56174 0,7.06991 0,9.97727c0,1.0249 -0.85107,1.69271 -1.65365,1.69271c-1.55653,0 -7.30455,0 -10.22727,0c-1.11081,0 -1.61908,-0.60028 -1.61908,-1.76089z" stroke="#7b7b7b" stroke-width="0.5" stroke-linecap="butt"/><path d="M235.81194,175.91098h8.33333" stroke="#a6a6a6" stroke-width="1" stroke-linecap="round"/><path d="M235.89527,178.24432h8.33333" stroke="#a6a6a6" stroke-width="1" stroke-linecap="round"/><path d="M235.83333,180.5h8.33333" stroke="#a6a6a6" stroke-width="1" stroke-linecap="round"/><path d="M235.81194,182.82765h8.33334" stroke="#a6a6a6" stroke-width="1" stroke-linecap="round"/><path d="M240.25619,183.29676l1.28841,1.60554l2.98307,-3.60514" stroke="#00ff21" stroke-width="1" stroke-linecap="round"/><g stroke="#6c6c6c" stroke-width="1" stroke-linecap="round"><path d="M243.68078,184.76757c-1.99811,-1.13422 -1.53369,-3.9408 0.85998,-4.42429c1.65991,0.13258 2.30713,1.12977 2.07771,1.51773"/><path d="M244.74571,181.60481l2.02717,0.96193l1.13633,-1.96154"/></g></g></g></svg>